<?xml version="1.0" encoding="UTF-8" standalone="no"?>
<!-- Created with Inkscape (http://www.inkscape.org/) -->
<svg
   xmlns:dc="http://purl.org/dc/elements/1.1/"
   xmlns:cc="http://creativecommons.org/ns#"
   xmlns:rdf="http://www.w3.org/1999/02/22-rdf-syntax-ns#"
   xmlns:svg="http://www.w3.org/2000/svg"
   xmlns="http://www.w3.org/2000/svg"
   xmlns:sodipodi="http://sodipodi.sourceforge.net/DTD/sodipodi-0.dtd"
   xmlns:inkscape="http://www.inkscape.org/namespaces/inkscape"
   width="48"
   height="48"
   id="svg2"
   sodipodi:version="0.32"
   inkscape:version="0.46"
   sodipodi:docname="cow.svg"
   inkscape:output_extension="org.inkscape.output.svg.inkscape"
   inkscape:export-filename="/home/rugby471/Desktop/cow.png"
   inkscape:export-xdpi="90"
   inkscape:export-ydpi="90"
   version="1.0">
  <defs
     id="defs4">
    <inkscape:perspective
       sodipodi:type="inkscape:persp3d"
       inkscape:vp_x="0 : 526.18109 : 1"
       inkscape:vp_y="0 : 1000 : 0"
       inkscape:vp_z="744.09448 : 526.18109 : 1"
       inkscape:persp3d-origin="372.04724 : 350.78739 : 1"
       id="perspective10" />
    <filter
       inkscape:collect="always"
       id="filter3817"
       x="-0.048987711"
       width="1.0979754"
       y="-0.46960634"
       height="1.9392127">
      <feGaussianBlur
         inkscape:collect="always"
         stdDeviation="0.75170652"
         id="feGaussianBlur3819" />
    </filter>
  </defs>
  <sodipodi:namedview
     id="base"
     pagecolor="#ffffff"
     bordercolor="#666666"
     borderopacity="1.0"
     gridtolerance="10000"
     guidetolerance="10"
     objecttolerance="10"
     inkscape:pageopacity="0.0"
     inkscape:pageshadow="2"
     inkscape:zoom="5.3377398"
     inkscape:cx="6.9043534"
     inkscape:cy="34.879524"
     inkscape:document-units="px"
     inkscape:current-layer="layer1"
     showgrid="false"
     inkscape:window-width="1679"
     inkscape:window-height="966"
     inkscape:window-x="0"
     inkscape:window-y="34" />
  <metadata
     id="metadata7">
    <rdf:RDF>
      <cc:Work
         rdf:about="">
        <dc:format>image/svg+xml</dc:format>
        <dc:type
           rdf:resource="http://purl.org/dc/dcmitype/StillImage" />
      </cc:Work>
    </rdf:RDF>
  </metadata>
  <g
     inkscape:label="Layer 1"
     inkscape:groupmode="layer"
     id="layer1"
     transform="translate(-176.927,-76.8276)">
    <path
       sodipodi:type="arc"
       style="opacity:0.32478632;fill:#000000;fill-opacity:1;fill-rule:nonzero;stroke:none;stroke-width:6;stroke-linecap:round;stroke-linejoin:round;marker:none;marker-start:none;marker-mid:none;marker-end:none;stroke-miterlimit:4;stroke-dasharray:none;stroke-dashoffset:0;stroke-opacity:1;visibility:visible;display:inline;overflow:visible;filter:url(#filter3817);enable-background:accumulate"
       id="path3815"
       sodipodi:cx="24.507519"
       sodipodi:cy="40.250324"
       sodipodi:rx="18.413757"
       sodipodi:ry="1.9208596"
       d="M 42.921276,40.250324 A 18.413757,1.9208596 0 1 1 6.0937614,40.250324 A 18.413757,1.9208596 0 1 1 42.921276,40.250324 z"
       transform="matrix(1,0,0,2.3103448,176.927,22.674051)" />
    <g
       id="g3803"
       transform="matrix(0.1314936,0,0,0.1314936,151.8935,60.396254)">
      <path
         d="M 441.28693,134.22259 C 441.28693,134.22259 464.13333,159.21084 434.14743,188.48278 C 404.16153,217.75473 407.01733,175.63168 407.01733,175.63168 C 407.01733,175.63168 412.72893,135.65049 441.28693,134.22259 z M 306.99847,134.22259 C 306.99847,134.22259 284.15207,159.21084 314.13797,188.48278 C 344.12387,217.75473 341.26807,175.63168 341.26807,175.63168 C 341.26807,175.63168 335.55647,135.65049 306.99847,134.22259 z"
         style="fill:#d3d7cf;fill-rule:evenodd;stroke:#888a85;stroke-width:6;stroke-linecap:butt;stroke-linejoin:miter;stroke-miterlimit:4;stroke-dasharray:none;stroke-opacity:1"
         id="path2426" />
      <path
         d="M 309.78125,140.65625 C 308.29954,142.76325 306.27412,146.06029 305.1875,151.53125 C 303.55925,159.72924 304.47537,170.67983 318.3125,184.1875 C 325.3281,191.03607 329.97951,192.75715 331.28125,192.8125 C 331.93212,192.84018 331.87537,192.8184 332.15625,192.59375 C 332.43713,192.3691 332.97299,191.7138 333.46875,190.59375 C 335.42967,186.16358 335.28427,176.37705 335.28125,176.15625 C 335.20819,175.67875 333.86066,167.02858 329.46875,158.09375 C 325.37811,149.7718 319.42062,142.41096 309.78125,140.65625 z M 438.5,140.65625 C 428.86225,142.41058 422.92759,149.77265 418.84375,158.09375 C 414.45915,167.02767 413.10394,175.67877 413.03125,176.15625 C 413.02807,176.3771 412.88838,186.16473 414.84375,190.59375 C 415.33811,191.71351 415.8776,192.37057 416.15625,192.59375 C 416.4349,192.81693 416.35153,192.84009 417,192.8125 C 418.29695,192.75731 422.95277,191.03643 429.96875,184.1875 C 443.80588,170.67983 444.722,159.72924 443.09375,151.53125 C 442.00713,146.06029 439.98171,142.76325 438.5,140.65625 z"
         id="path3785"
         style="fill:none;fill-rule:evenodd;stroke:#ffffff;stroke-width:6;stroke-linecap:butt;stroke-linejoin:miter;stroke-miterlimit:4;stroke-dasharray:none;stroke-opacity:1"
         inkscape:original="M 307 134.21875 C 307 134.21874 284.1391 159.19681 314.125 188.46875 C 344.1109 217.74071 341.28125 175.625 341.28125 175.625 C 341.28125 175.625 335.558 135.64665 307 134.21875 z M 441.28125 134.21875 C 412.72325 135.64665 407.03125 175.625 407.03125 175.625 C 407.03125 175.625 404.17035 217.74071 434.15625 188.46875 C 464.14215 159.19681 441.28125 134.21874 441.28125 134.21875 z "
         inkscape:radius="-6"
         sodipodi:type="inkscape:offset" />
      <path
         sodipodi:nodetypes="cccsccssscscssscscsssccsccscscsc"
         id="path2385"
         d="M 339.8129,165.75901 C 338.43207,165.74134 337.03216,166.03784 335.71915,166.72776 L 311.71915,179.35276 C 307.51753,181.5605 305.91767,186.71364 308.1254,190.91526 C 308.8468,192.28819 309.87876,193.38923 311.09415,194.16526 C 306.1965,198.33338 301.91191,202.96999 298.3754,208.00901 C 294.37912,196.53802 267.4469,192.19303 236.8129,198.35276 C 205.1308,204.72324 193.42061,219.92651 195.90665,232.29026 C 198.39269,244.65402 214.1308,249.53574 245.8129,243.16526 C 264.49952,239.40784 280.4165,232.57985 289.8129,225.07151 C 287.98799,230.76314 287.0004,236.73019 287.0004,242.88401 C 287.0004,250.48743 288.50822,257.83139 291.2504,264.69651 C 277.84376,280.43456 269.8754,300.09137 269.8754,321.41526 C 269.8754,373.04241 316.58675,414.9465 374.1254,414.94651 C 431.66405,414.94651 478.34414,373.04242 478.34415,321.41526 C 478.34415,300.09136 470.3758,280.43456 456.96915,264.69651 C 459.71133,257.83139 461.21915,250.48743 461.21915,242.88401 C 461.21915,237.43127 460.47392,232.10739 459.03165,227.00901 C 468.61932,233.7389 483.34786,239.73516 500.40665,243.16526 C 532.08875,249.53574 547.79558,244.65402 550.28165,232.29026 C 552.76769,219.92651 541.08876,204.72324 509.40665,198.35276 C 480.33354,192.50688 454.58957,196.13261 448.6254,206.32151 C 445.34825,201.93811 441.49034,197.85791 437.15665,194.16526 C 438.36191,193.39014 439.3774,192.27934 440.09415,190.91526 C 442.30189,186.71364 440.70202,181.5605 436.5004,179.35276 L 412.5004,166.72776 C 408.29878,164.52002 403.14564,166.11989 400.9379,170.32151 C 400.08328,171.94797 399.81411,173.72844 400.03165,175.41526 C 391.84911,173.34579 383.1467,172.22776 374.1254,172.22776 C 365.09072,172.22776 356.38261,173.34108 348.1879,175.41526 C 348.40544,173.72844 348.13627,171.94797 347.28165,170.32151 C 345.76383,167.43289 342.85073,165.79788 339.8129,165.75901 z"
         style="fill:#eeeeec;fill-opacity:1;stroke:#727272;stroke-width:6;stroke-miterlimit:4;stroke-dasharray:none;stroke-opacity:1" />
      <path
         d="M 339.75,171.75 C 339.27969,171.74398 338.88507,171.82892 338.5,172.03125 L 314.5,184.65625 C 313.1464,185.3675 312.72456,186.76817 313.4375,188.125 C 313.67737,188.58151 313.96833,188.87399 314.3125,189.09375 C 315.9152,190.11867 316.93696,191.84287 317.06637,193.74086 C 317.19578,195.63885 316.41751,197.48577 314.96875,198.71875 C 310.42828,202.5829 306.50291,206.84709 303.28125,211.4375 C 301.98651,213.27156 299.77627,214.22947 297.55265,213.92026 C 295.32902,213.61106 293.46399,212.08647 292.71875,209.96875 C 292.36978,208.96707 291.2484,207.52886 288.53125,206.0625 C 285.8141,204.59614 281.71144,203.29981 276.65625,202.5 C 266.54587,200.90038 252.71655,201.25962 238,204.21875 C 222.92323,207.25032 213.10849,212.34542 207.65625,217.4375 C 202.20401,222.52958 200.99083,227.16278 201.78125,231.09375 C 202.572,235.02636 204.54913,237.28283 211.3125,238.90625 C 218.07587,240.52967 229.26257,240.37025 244.625,237.28125 C 262.57995,233.67096 277.86172,226.92796 286.0625,220.375 C 288.13061,218.71023 291.04687,218.60236 293.23232,220.10982 C 295.41776,221.61727 296.35283,224.38166 295.53125,226.90625 C 293.88644,232.03618 293,237.36312 293,242.875 C 293,249.6852 294.33604,256.26888 296.8125,262.46875 C 297.64281,264.53766 297.25772,266.89635 295.8125,268.59375 C 283.24409,283.34781 275.875,301.57709 275.875,321.40625 C 275.875,369.41428 319.49946,408.93749 374.125,408.9375 C 428.75054,408.93751 472.34374,369.4167 472.34375,321.40625 C 472.34375,301.57709 464.97467,283.3478 452.40625,268.59375 C 450.96103,266.89635 450.57594,264.53766 451.40625,262.46875 C 453.8827,256.26889 455.21875,249.68519 455.21875,242.875 C 455.21875,237.96895 454.54182,233.19156 453.25,228.625 C 452.56846,226.1847 453.49311,223.57929 455.56052,222.11458 C 457.62794,220.64988 460.39254,220.64154 462.46875,222.09375 C 471.06309,228.1264 485.20547,233.98597 501.59375,237.28125 C 516.95655,240.37033 528.12097,240.52898 534.875,238.90625 C 541.62903,237.28352 543.61453,235.03112 544.40625,231.09375 C 545.19762,227.15802 544.00633,222.52778 538.5625,217.4375 C 533.11867,212.34722 523.29515,207.25024 508.21875,204.21875 C 494.25277,201.41054 481.11077,200.91608 471.15625,202.25 C 461.20173,203.58392 455.05,207.22967 453.8125,209.34375 C 452.79812,211.08596 450.97667,212.20236 448.96385,212.31558 C 446.95102,212.4288 445.01587,211.52371 443.8125,209.90625 C 440.81835,205.90139 437.26093,202.13638 433.25,198.71875 C 431.81388,197.48515 431.04414,195.64616 431.17334,193.75738 C 431.30254,191.86859 432.31553,190.15155 433.90625,189.125 C 434.20762,188.93119 434.52606,188.61067 434.78125,188.125 C 435.49418,186.7682 435.07233,185.36749 433.71875,184.65625 L 409.71875,172.03125 C 408.36192,171.31831 406.96124,171.74017 406.25,173.09375 C 405.99273,173.58337 405.90002,174.09206 405.96875,174.625 C 406.22416,176.59282 405.49023,178.55966 404.00817,179.87914 C 402.5261,181.19862 400.48756,181.70009 398.5625,181.21875 C 390.86232,179.27128 382.65057,178.21875 374.125,178.21875 C 365.58322,178.21876 357.36587,179.26735 349.65625,181.21875 C 347.73119,181.70009 345.69265,181.19862 344.21058,179.87914 C 342.72852,178.55966 341.99459,176.59282 342.25,174.625 C 342.31873,174.09208 342.226,173.58333 341.96875,173.09375 C 341.48768,172.1782 340.68455,171.76196 339.75,171.75 z"
         id="path3780"
         style="fill:none;fill-opacity:1;stroke:#ffffff;stroke-width:6;stroke-miterlimit:4;stroke-dasharray:none;stroke-opacity:1"
         inkscape:original="M 339.8125 165.75 C 338.43167 165.73234 337.03176 166.02883 335.71875 166.71875 L 311.71875 179.34375 C 307.51713 181.5515 305.91727 186.70463 308.125 190.90625 C 308.8464 192.27919 309.87836 193.38022 311.09375 194.15625 C 306.1961 198.32438 301.91151 202.96098 298.375 208 C 294.37872 196.52902 267.4465 192.18402 236.8125 198.34375 C 205.1304 204.71424 193.42021 219.9175 195.90625 232.28125 C 198.39229 244.64502 214.1304 249.52673 245.8125 243.15625 C 264.49912 239.39884 280.4161 232.57084 289.8125 225.0625 C 287.98759 230.75414 287 236.72118 287 242.875 C 287 250.47843 288.50782 257.82238 291.25 264.6875 C 277.84336 280.42556 269.875 300.08236 269.875 321.40625 C 269.875 373.03341 316.58635 414.93749 374.125 414.9375 C 431.66365 414.93751 478.34374 373.03341 478.34375 321.40625 C 478.34375 300.08236 470.3754 280.42555 456.96875 264.6875 C 459.71093 257.82239 461.21875 250.47842 461.21875 242.875 C 461.21875 237.42227 460.47352 232.09838 459.03125 227 C 468.61892 233.7299 483.34746 239.72615 500.40625 243.15625 C 532.08835 249.52674 547.79518 244.64501 550.28125 232.28125 C 552.76726 219.91751 541.08836 204.71423 509.40625 198.34375 C 480.33314 192.49788 454.58917 196.1236 448.625 206.3125 C 445.34785 201.92911 441.48994 197.8489 437.15625 194.15625 C 438.36151 193.38114 439.377 192.27033 440.09375 190.90625 C 442.30149 186.70464 440.70162 181.55149 436.5 179.34375 L 412.5 166.71875 C 408.29838 164.51102 403.14524 166.11088 400.9375 170.3125 C 400.08288 171.93897 399.81371 173.71943 400.03125 175.40625 C 391.84871 173.33679 383.1463 172.21875 374.125 172.21875 C 365.09032 172.21876 356.38221 173.33207 348.1875 175.40625 C 348.40504 173.71944 348.13587 171.93896 347.28125 170.3125 C 345.76343 167.42389 342.85033 165.78887 339.8125 165.75 z "
         inkscape:radius="-6"
         sodipodi:type="inkscape:offset" />
      <path
         id="path2394"
         d="M 329.92342,321.00231 C 293.25064,321.00231 263.50258,345.96027 263.50258,376.69898 C 263.50258,407.43769 293.25064,432.35925 329.92342,432.35926 C 346.39378,432.35926 361.46796,427.33679 373.08066,419.00807 C 384.69443,427.34019 399.76381,432.35925 416.23791,432.35926 C 452.9107,432.35926 482.68593,407.43769 482.68593,376.69898 C 482.68593,345.96027 452.91069,321.00232 416.23791,321.00231 C 399.76381,321.00231 384.69443,326.05777 373.08066,334.38988 C 361.46796,326.06116 346.39378,321.00232 329.92342,321.00231 z"
         style="fill:#ffbfbf;fill-opacity:1;stroke:#ff7e7e;stroke-width:6;stroke-miterlimit:4;stroke-dasharray:none;stroke-opacity:1" />
      <path
         id="path2399"
         d="M 351.96915,222.32151 C 337.38744,222.32151 325.56291,234.14603 325.5629,248.72776 C 325.5629,263.30947 337.38743,275.16526 351.96915,275.16526 C 361.47283,275.16526 369.81527,270.14106 374.46915,262.60276 C 379.12303,270.14106 387.46548,275.16526 396.96915,275.16526 C 411.55086,275.16526 423.37539,263.30946 423.3754,248.72776 C 423.3754,234.14605 411.55087,222.32152 396.96915,222.32151 C 387.46547,222.32151 379.12303,227.34571 374.46915,234.88401 C 369.81527,227.34571 361.47282,222.32152 351.96915,222.32151 z"
         style="fill:#eeeeec;fill-opacity:1;stroke:#888a85;stroke-width:6;stroke-miterlimit:4;stroke-dasharray:none;stroke-opacity:1" />
      <path
         id="path2405"
         d="M 345.73477,358.57151 C 336.95475,358.57151 329.82852,365.69773 329.82852,374.47776 C 329.82852,383.25778 336.95473,390.38402 345.73477,390.38401 C 354.51479,390.38401 361.64102,383.25778 361.64102,374.47776 C 361.64102,365.69774 354.51478,358.57152 345.73477,358.57151 z M 403.20352,358.57151 C 394.4235,358.57151 387.29728,365.69773 387.29727,374.47776 C 387.29727,383.25778 394.42349,390.38402 403.20352,390.38401 C 411.98354,390.38401 419.10978,383.25778 419.10977,374.47776 C 419.10977,365.69774 411.98354,358.57152 403.20352,358.57151 z"
         style="fill:#2e3436;fill-opacity:1;stroke:#000000;stroke-width:6;stroke-miterlimit:4;stroke-dasharray:none;stroke-opacity:1" />
      <path
         transform="translate(229.3549,-91.816053)"
         d="M 132.79469,340.19714 A 10.352274,9.6383238 0 1 1 112.09014,340.19714 A 10.352274,9.6383238 0 1 1 132.79469,340.19714 z"
         sodipodi:ry="9.6383238"
         sodipodi:rx="10.352274"
         sodipodi:cy="340.19714"
         sodipodi:cx="122.44241"
         id="path2420"
         style="fill:#2e3436;fill-opacity:1;stroke:#2e3436;stroke-width:6;stroke-miterlimit:4;stroke-dasharray:none;stroke-opacity:1"
         sodipodi:type="arc" />
      <path
         transform="translate(274.26086,-91.826351)"
         d="M 132.79469,340.19714 A 10.352274,9.6383238 0 1 1 112.09014,340.19714 A 10.352274,9.6383238 0 1 1 132.79469,340.19714 z"
         sodipodi:ry="9.6383238"
         sodipodi:rx="10.352274"
         sodipodi:cy="340.19714"
         sodipodi:cx="122.44241"
         id="path2422"
         style="fill:#2e3436;fill-opacity:1;stroke:#2e3436;stroke-width:6;stroke-miterlimit:4;stroke-dasharray:none;stroke-opacity:1"
         sodipodi:type="arc" />
      <path
         d="M 329.9375,327 C 295.98594,326.99999 269.5,349.82204 269.5,376.6875 C 269.49999,403.55296 295.98254,426.34374 329.9375,426.34375 C 345.18989,426.34376 359.05224,421.68545 369.59375,414.125 C 371.68538,412.62305 374.50212,412.62305 376.59375,414.125 C 387.13614,421.68849 400.99274,426.34374 416.25,426.34375 C 450.20495,426.34376 476.6875,403.55295 476.6875,376.6875 C 476.68749,349.82205 450.20155,327.00001 416.25,327 C 401.00033,326.99999 387.14193,331.68238 376.59375,339.25 C 374.50212,340.75195 371.68538,340.75195 369.59375,339.25 C 359.04647,331.6854 345.18232,327.00001 329.9375,327 z"
         id="path3789"
         style="opacity:0.76068379;fill:none;fill-opacity:1;stroke:#ffffff;stroke-width:6;stroke-miterlimit:4;stroke-dasharray:none;stroke-opacity:1"
         inkscape:original="M 329.9375 321 C 293.26471 320.99999 263.5 345.94879 263.5 376.6875 C 263.49999 407.42622 293.26472 432.34374 329.9375 432.34375 C 346.40785 432.34376 361.48105 427.32872 373.09375 419 C 384.70752 427.33213 399.7759 432.34374 416.25 432.34375 C 452.92278 432.34376 482.6875 407.42621 482.6875 376.6875 C 482.68749 345.9488 452.92278 321.00001 416.25 321 C 399.77589 320.99999 384.70752 326.04289 373.09375 334.375 C 361.48105 326.04627 346.40786 321.00001 329.9375 321 z "
         inkscape:radius="-6"
         sodipodi:type="inkscape:offset" />
    </g>
  </g>
</svg>
